<mxfile host="Electron" modified="2023-10-06T16:35:44.673Z" agent="Mozilla/5.0 (Windows NT 10.0; Win64; x64) AppleWebKit/537.36 (KHTML, like Gecko) draw.io/21.7.5 Chrome/114.0.5735.289 Electron/25.8.1 Safari/537.36" etag="IX_M93wTDbPzxxlGNjFl" version="21.7.5" type="device">
  <diagram name="Pagina-1" id="B_oa5EuHzADctO1M2Kjf">
    <mxGraphModel dx="1104" dy="1685" grid="1" gridSize="10" guides="1" tooltips="1" connect="1" arrows="1" fold="1" page="1" pageScale="1" pageWidth="827" pageHeight="1169" math="0" shadow="0">
      <root>
        <mxCell id="0" />
        <mxCell id="1" parent="0" />
        <mxCell id="vMqTE0Bzf3kies2tliCf-1" value="" style="shape=umlLifeline;perimeter=lifelinePerimeter;whiteSpace=wrap;html=1;container=1;dropTarget=0;collapsible=0;recursiveResize=0;outlineConnect=0;portConstraint=eastwest;newEdgeStyle={&quot;curved&quot;:0,&quot;rounded&quot;:0};participant=umlActor;" parent="1" vertex="1">
          <mxGeometry x="40" y="-60" width="20" height="740" as="geometry" />
        </mxCell>
        <mxCell id="vMqTE0Bzf3kies2tliCf-3" value="" style="html=1;points=[[0,0,0,0,5],[0,1,0,0,-5],[1,0,0,0,5],[1,1,0,0,-5]];perimeter=orthogonalPerimeter;outlineConnect=0;targetShapes=umlLifeline;portConstraint=eastwest;newEdgeStyle={&quot;curved&quot;:0,&quot;rounded&quot;:0};" parent="vMqTE0Bzf3kies2tliCf-1" vertex="1">
          <mxGeometry x="5" y="59" width="10" height="641" as="geometry" />
        </mxCell>
        <mxCell id="vMqTE0Bzf3kies2tliCf-2" value="Cliente" style="text;html=1;align=center;verticalAlign=middle;resizable=0;points=[];autosize=1;strokeColor=none;fillColor=none;" parent="1" vertex="1">
          <mxGeometry x="20" y="-90" width="60" height="30" as="geometry" />
        </mxCell>
        <mxCell id="vMqTE0Bzf3kies2tliCf-4" value="Norifica &quot;Rider Consegna Ordine&quot;" style="shape=umlLifeline;perimeter=lifelinePerimeter;whiteSpace=wrap;html=1;container=1;dropTarget=0;collapsible=0;recursiveResize=0;outlineConnect=0;portConstraint=eastwest;newEdgeStyle={&quot;curved&quot;:0,&quot;rounded&quot;:0};" parent="1" vertex="1">
          <mxGeometry x="480" y="234" width="100" height="260" as="geometry" />
        </mxCell>
        <mxCell id="vMqTE0Bzf3kies2tliCf-6" value="" style="html=1;points=[[0,0,0,0,5],[0,1,0,0,-5],[1,0,0,0,5],[1,1,0,0,-5]];perimeter=orthogonalPerimeter;outlineConnect=0;targetShapes=umlLifeline;portConstraint=eastwest;newEdgeStyle={&quot;curved&quot;:0,&quot;rounded&quot;:0};" parent="vMqTE0Bzf3kies2tliCf-4" vertex="1">
          <mxGeometry x="45" y="51" width="10" height="189" as="geometry" />
        </mxCell>
        <mxCell id="vMqTE0Bzf3kies2tliCf-5" value="Imposta()" style="html=1;verticalAlign=bottom;endArrow=block;curved=0;rounded=0;" parent="1" edge="1">
          <mxGeometry width="80" relative="1" as="geometry">
            <mxPoint x="50" y="64.5" as="sourcePoint" />
            <mxPoint x="150" y="65" as="targetPoint" />
          </mxGeometry>
        </mxCell>
        <mxCell id="vMqTE0Bzf3kies2tliCf-7" value="Riceve()" style="html=1;verticalAlign=bottom;endArrow=block;curved=0;rounded=0;" parent="1" target="vMqTE0Bzf3kies2tliCf-23" edge="1">
          <mxGeometry width="80" relative="1" as="geometry">
            <mxPoint x="520" y="360" as="sourcePoint" />
            <mxPoint x="629.5" y="360" as="targetPoint" />
          </mxGeometry>
        </mxCell>
        <mxCell id="vMqTE0Bzf3kies2tliCf-8" value="Notifica &quot;Ordine Ricevuto&quot;" style="shape=umlLifeline;perimeter=lifelinePerimeter;whiteSpace=wrap;html=1;container=1;dropTarget=0;collapsible=0;recursiveResize=0;outlineConnect=0;portConstraint=eastwest;newEdgeStyle={&quot;curved&quot;:0,&quot;rounded&quot;:0};" parent="1" vertex="1">
          <mxGeometry x="590" y="280" width="100" height="100" as="geometry" />
        </mxCell>
        <mxCell id="vMqTE0Bzf3kies2tliCf-23" value="" style="html=1;points=[[0,0,0,0,5],[0,1,0,0,-5],[1,0,0,0,5],[1,1,0,0,-5]];perimeter=orthogonalPerimeter;outlineConnect=0;targetShapes=umlLifeline;portConstraint=eastwest;newEdgeStyle={&quot;curved&quot;:0,&quot;rounded&quot;:0};" parent="vMqTE0Bzf3kies2tliCf-8" vertex="1">
          <mxGeometry x="45" y="40" width="10" height="50" as="geometry" />
        </mxCell>
        <mxCell id="vMqTE0Bzf3kies2tliCf-9" value="Compila()" style="html=1;verticalAlign=bottom;endArrow=block;curved=0;rounded=0;" parent="1" edge="1">
          <mxGeometry width="80" relative="1" as="geometry">
            <mxPoint x="50" y="430" as="sourcePoint" />
            <mxPoint x="130" y="430" as="targetPoint" />
          </mxGeometry>
        </mxCell>
        <mxCell id="vMqTE0Bzf3kies2tliCf-10" value="Bottone &quot;Scrivi Recensione&quot;" style="shape=umlLifeline;perimeter=lifelinePerimeter;whiteSpace=wrap;html=1;container=1;dropTarget=0;collapsible=0;recursiveResize=0;outlineConnect=0;portConstraint=eastwest;newEdgeStyle={&quot;curved&quot;:0,&quot;rounded&quot;:0};" parent="1" vertex="1">
          <mxGeometry x="130" y="406" width="100" height="160" as="geometry" />
        </mxCell>
        <mxCell id="vMqTE0Bzf3kies2tliCf-11" value="" style="html=1;points=[[0,0,0,0,5],[0,1,0,0,-5],[1,0,0,0,5],[1,1,0,0,-5]];perimeter=orthogonalPerimeter;outlineConnect=0;targetShapes=umlLifeline;portConstraint=eastwest;newEdgeStyle={&quot;curved&quot;:0,&quot;rounded&quot;:0};" parent="vMqTE0Bzf3kies2tliCf-10" vertex="1">
          <mxGeometry x="45" y="50" width="10" height="80" as="geometry" />
        </mxCell>
        <mxCell id="vMqTE0Bzf3kies2tliCf-12" value="&amp;lt;&amp;lt;create&amp;gt;&amp;gt;" style="html=1;verticalAlign=bottom;endArrow=block;curved=0;rounded=0;" parent="1" edge="1">
          <mxGeometry width="80" relative="1" as="geometry">
            <mxPoint x="180" y="485.5" as="sourcePoint" />
            <mxPoint x="260" y="485.5" as="targetPoint" />
          </mxGeometry>
        </mxCell>
        <mxCell id="vMqTE0Bzf3kies2tliCf-13" value="Control &quot;Recensione&quot;" style="shape=umlLifeline;perimeter=lifelinePerimeter;whiteSpace=wrap;html=1;container=1;dropTarget=0;collapsible=0;recursiveResize=0;outlineConnect=0;portConstraint=eastwest;newEdgeStyle={&quot;curved&quot;:0,&quot;rounded&quot;:0};" parent="1" vertex="1">
          <mxGeometry x="260" y="460" width="100" height="300" as="geometry" />
        </mxCell>
        <mxCell id="vMqTE0Bzf3kies2tliCf-14" value="" style="html=1;points=[[0,0,0,0,5],[0,1,0,0,-5],[1,0,0,0,5],[1,1,0,0,-5]];perimeter=orthogonalPerimeter;outlineConnect=0;targetShapes=umlLifeline;portConstraint=eastwest;newEdgeStyle={&quot;curved&quot;:0,&quot;rounded&quot;:0};" parent="vMqTE0Bzf3kies2tliCf-13" vertex="1">
          <mxGeometry x="45" y="60" width="10" height="80" as="geometry" />
        </mxCell>
        <mxCell id="vMqTE0Bzf3kies2tliCf-19" value="" style="html=1;points=[[0,0,0,0,5],[0,1,0,0,-5],[1,0,0,0,5],[1,1,0,0,-5]];perimeter=orthogonalPerimeter;outlineConnect=0;targetShapes=umlLifeline;portConstraint=eastwest;newEdgeStyle={&quot;curved&quot;:0,&quot;rounded&quot;:0};" parent="vMqTE0Bzf3kies2tliCf-13" vertex="1">
          <mxGeometry x="45" y="190" width="10" height="90" as="geometry" />
        </mxCell>
        <mxCell id="vMqTE0Bzf3kies2tliCf-15" value="&amp;lt;&amp;lt;create&amp;gt;&amp;gt;" style="html=1;verticalAlign=bottom;endArrow=block;curved=0;rounded=0;" parent="1" edge="1">
          <mxGeometry width="80" relative="1" as="geometry">
            <mxPoint x="310" y="540" as="sourcePoint" />
            <mxPoint x="390" y="540" as="targetPoint" />
          </mxGeometry>
        </mxCell>
        <mxCell id="vMqTE0Bzf3kies2tliCf-16" value="Form &quot;Scrivi Recensione&quot;" style="shape=umlLifeline;perimeter=lifelinePerimeter;whiteSpace=wrap;html=1;container=1;dropTarget=0;collapsible=0;recursiveResize=0;outlineConnect=0;portConstraint=eastwest;newEdgeStyle={&quot;curved&quot;:0,&quot;rounded&quot;:0};" parent="1" vertex="1">
          <mxGeometry x="390" y="530" width="100" height="300" as="geometry" />
        </mxCell>
        <mxCell id="vMqTE0Bzf3kies2tliCf-17" value="" style="html=1;points=[[0,0,0,0,5],[0,1,0,0,-5],[1,0,0,0,5],[1,1,0,0,-5]];perimeter=orthogonalPerimeter;outlineConnect=0;targetShapes=umlLifeline;portConstraint=eastwest;newEdgeStyle={&quot;curved&quot;:0,&quot;rounded&quot;:0};" parent="vMqTE0Bzf3kies2tliCf-16" vertex="1">
          <mxGeometry x="45" y="50" width="10" height="120" as="geometry" />
        </mxCell>
        <mxCell id="vMqTE0Bzf3kies2tliCf-22" value="" style="shape=umlDestroy;whiteSpace=wrap;html=1;strokeWidth=3;targetShapes=umlLifeline;" parent="vMqTE0Bzf3kies2tliCf-16" vertex="1">
          <mxGeometry x="35" y="175" width="30" height="30" as="geometry" />
        </mxCell>
        <mxCell id="vMqTE0Bzf3kies2tliCf-18" value="ScriveRecensione()" style="html=1;verticalAlign=bottom;endArrow=block;curved=0;rounded=0;" parent="1" edge="1">
          <mxGeometry width="80" relative="1" as="geometry">
            <mxPoint x="50" y="630" as="sourcePoint" />
            <mxPoint x="439.5" y="630" as="targetPoint" />
          </mxGeometry>
        </mxCell>
        <mxCell id="vMqTE0Bzf3kies2tliCf-20" value="Invia()" style="html=1;verticalAlign=bottom;endArrow=block;curved=0;rounded=0;" parent="1" edge="1">
          <mxGeometry width="80" relative="1" as="geometry">
            <mxPoint x="439.5" y="670" as="sourcePoint" />
            <mxPoint x="310" y="670" as="targetPoint" />
          </mxGeometry>
        </mxCell>
        <mxCell id="vMqTE0Bzf3kies2tliCf-21" value="&amp;lt;&amp;lt;destroy&amp;gt;&amp;gt;" style="html=1;verticalAlign=bottom;endArrow=block;curved=0;rounded=0;" parent="1" edge="1">
          <mxGeometry width="80" relative="1" as="geometry">
            <mxPoint x="310" y="720" as="sourcePoint" />
            <mxPoint x="439.5" y="720" as="targetPoint" />
          </mxGeometry>
        </mxCell>
        <mxCell id="vMqTE0Bzf3kies2tliCf-24" value="Riceve()" style="html=1;verticalAlign=bottom;endArrow=block;curved=0;rounded=0;" parent="1" edge="1">
          <mxGeometry width="80" relative="1" as="geometry">
            <mxPoint x="530" y="462" as="sourcePoint" />
            <mxPoint x="735" y="462" as="targetPoint" />
          </mxGeometry>
        </mxCell>
        <mxCell id="vMqTE0Bzf3kies2tliCf-25" value="Notifica &quot;Problematica Ordine&quot;" style="shape=umlLifeline;perimeter=lifelinePerimeter;whiteSpace=wrap;html=1;container=1;dropTarget=0;collapsible=0;recursiveResize=0;outlineConnect=0;portConstraint=eastwest;newEdgeStyle={&quot;curved&quot;:0,&quot;rounded&quot;:0};" parent="1" vertex="1">
          <mxGeometry x="690" y="360" width="100" height="170" as="geometry" />
        </mxCell>
        <mxCell id="vMqTE0Bzf3kies2tliCf-26" value="" style="html=1;points=[[0,0,0,0,5],[0,1,0,0,-5],[1,0,0,0,5],[1,1,0,0,-5]];perimeter=orthogonalPerimeter;outlineConnect=0;targetShapes=umlLifeline;portConstraint=eastwest;newEdgeStyle={&quot;curved&quot;:0,&quot;rounded&quot;:0};" parent="vMqTE0Bzf3kies2tliCf-25" vertex="1">
          <mxGeometry x="45" y="50" width="10" height="70" as="geometry" />
        </mxCell>
        <mxCell id="8eK9WCpoe9faXlAlkB3J-1" value="" style="shape=umlDestroy;whiteSpace=wrap;html=1;strokeWidth=3;targetShapes=umlLifeline;" parent="vMqTE0Bzf3kies2tliCf-25" vertex="1">
          <mxGeometry x="35" y="135" width="30" height="30" as="geometry" />
        </mxCell>
        <mxCell id="vMqTE0Bzf3kies2tliCf-27" value="Decide()" style="html=1;verticalAlign=bottom;endArrow=block;curved=0;rounded=0;" parent="1" source="vMqTE0Bzf3kies2tliCf-25" target="vMqTE0Bzf3kies2tliCf-28" edge="1">
          <mxGeometry width="80" relative="1" as="geometry">
            <mxPoint x="500" y="280" as="sourcePoint" />
            <mxPoint x="580" y="280" as="targetPoint" />
          </mxGeometry>
        </mxCell>
        <mxCell id="vMqTE0Bzf3kies2tliCf-28" value="Bottone &quot;Rimborso&quot;" style="shape=umlLifeline;perimeter=lifelinePerimeter;whiteSpace=wrap;html=1;container=1;dropTarget=0;collapsible=0;recursiveResize=0;outlineConnect=0;portConstraint=eastwest;newEdgeStyle={&quot;curved&quot;:0,&quot;rounded&quot;:0};" parent="1" vertex="1">
          <mxGeometry x="840" y="390" width="100" height="140" as="geometry" />
        </mxCell>
        <mxCell id="vMqTE0Bzf3kies2tliCf-29" value="" style="html=1;points=[[0,0,0,0,5],[0,1,0,0,-5],[1,0,0,0,5],[1,1,0,0,-5]];perimeter=orthogonalPerimeter;outlineConnect=0;targetShapes=umlLifeline;portConstraint=eastwest;newEdgeStyle={&quot;curved&quot;:0,&quot;rounded&quot;:0};" parent="vMqTE0Bzf3kies2tliCf-28" vertex="1">
          <mxGeometry x="45" y="45.5" width="10" height="84.5" as="geometry" />
        </mxCell>
        <mxCell id="vMqTE0Bzf3kies2tliCf-30" value="&amp;lt;&amp;lt;destroy&amp;gt;&amp;gt;" style="html=1;verticalAlign=bottom;endArrow=block;curved=0;rounded=0;entryX=0.5;entryY=0.5;entryDx=0;entryDy=0;entryPerimeter=0;" parent="1" edge="1" target="8eK9WCpoe9faXlAlkB3J-1">
          <mxGeometry width="80" relative="1" as="geometry">
            <mxPoint x="890.5" y="510" as="sourcePoint" />
            <mxPoint x="750" y="510" as="targetPoint" />
          </mxGeometry>
        </mxCell>
        <mxCell id="nyp7UTZMh-LQ20o-XJWW-1" value="Bottone &quot;Luogo Consegna&quot;" style="shape=umlLifeline;perimeter=lifelinePerimeter;whiteSpace=wrap;html=1;container=1;dropTarget=0;collapsible=0;recursiveResize=0;outlineConnect=0;portConstraint=eastwest;newEdgeStyle={&quot;curved&quot;:0,&quot;rounded&quot;:0};" parent="1" vertex="1">
          <mxGeometry x="105" y="-55" width="100" height="215" as="geometry" />
        </mxCell>
        <mxCell id="nyp7UTZMh-LQ20o-XJWW-2" value="" style="html=1;points=[[0,0,0,0,5],[0,1,0,0,-5],[1,0,0,0,5],[1,1,0,0,-5]];perimeter=orthogonalPerimeter;outlineConnect=0;targetShapes=umlLifeline;portConstraint=eastwest;newEdgeStyle={&quot;curved&quot;:0,&quot;rounded&quot;:0};" parent="nyp7UTZMh-LQ20o-XJWW-1" vertex="1">
          <mxGeometry x="45" y="70" width="10" height="80" as="geometry" />
        </mxCell>
        <mxCell id="nyp7UTZMh-LQ20o-XJWW-3" value="Control &quot;Luogo Consegna&quot;" style="shape=umlLifeline;perimeter=lifelinePerimeter;whiteSpace=wrap;html=1;container=1;dropTarget=0;collapsible=0;recursiveResize=0;outlineConnect=0;portConstraint=eastwest;newEdgeStyle={&quot;curved&quot;:0,&quot;rounded&quot;:0};" parent="1" vertex="1">
          <mxGeometry x="230" y="52" width="100" height="258" as="geometry" />
        </mxCell>
        <mxCell id="nyp7UTZMh-LQ20o-XJWW-5" value="" style="html=1;points=[[0,0,0,0,5],[0,1,0,0,-5],[1,0,0,0,5],[1,1,0,0,-5]];perimeter=orthogonalPerimeter;outlineConnect=0;targetShapes=umlLifeline;portConstraint=eastwest;newEdgeStyle={&quot;curved&quot;:0,&quot;rounded&quot;:0};" parent="nyp7UTZMh-LQ20o-XJWW-3" vertex="1">
          <mxGeometry x="45" y="40" width="10" height="70" as="geometry" />
        </mxCell>
        <mxCell id="nyp7UTZMh-LQ20o-XJWW-10" value="" style="html=1;points=[[0,0,0,0,5],[0,1,0,0,-5],[1,0,0,0,5],[1,1,0,0,-5]];perimeter=orthogonalPerimeter;outlineConnect=0;targetShapes=umlLifeline;portConstraint=eastwest;newEdgeStyle={&quot;curved&quot;:0,&quot;rounded&quot;:0};" parent="nyp7UTZMh-LQ20o-XJWW-3" vertex="1">
          <mxGeometry x="45" y="138" width="10" height="102" as="geometry" />
        </mxCell>
        <mxCell id="nyp7UTZMh-LQ20o-XJWW-4" value="&amp;lt;&amp;lt;create&amp;gt;&amp;gt;" style="html=1;verticalAlign=bottom;endArrow=block;curved=0;rounded=0;" parent="1" edge="1" source="nyp7UTZMh-LQ20o-XJWW-2">
          <mxGeometry width="80" relative="1" as="geometry">
            <mxPoint x="170" y="80" as="sourcePoint" />
            <mxPoint x="230" y="80" as="targetPoint" />
          </mxGeometry>
        </mxCell>
        <mxCell id="nyp7UTZMh-LQ20o-XJWW-6" value="Form &quot;Luogo Consegna&quot;" style="shape=umlLifeline;perimeter=lifelinePerimeter;whiteSpace=wrap;html=1;container=1;dropTarget=0;collapsible=0;recursiveResize=0;outlineConnect=0;portConstraint=eastwest;newEdgeStyle={&quot;curved&quot;:0,&quot;rounded&quot;:0};" parent="1" vertex="1">
          <mxGeometry x="360" y="110" width="100" height="221" as="geometry" />
        </mxCell>
        <mxCell id="nyp7UTZMh-LQ20o-XJWW-7" value="" style="html=1;points=[[0,0,0,0,5],[0,1,0,0,-5],[1,0,0,0,5],[1,1,0,0,-5]];perimeter=orthogonalPerimeter;outlineConnect=0;targetShapes=umlLifeline;portConstraint=eastwest;newEdgeStyle={&quot;curved&quot;:0,&quot;rounded&quot;:0};" parent="nyp7UTZMh-LQ20o-XJWW-6" vertex="1">
          <mxGeometry x="45" y="50" width="10" height="110" as="geometry" />
        </mxCell>
        <mxCell id="nyp7UTZMh-LQ20o-XJWW-13" value="" style="shape=umlDestroy;whiteSpace=wrap;html=1;strokeWidth=3;targetShapes=umlLifeline;" parent="nyp7UTZMh-LQ20o-XJWW-6" vertex="1">
          <mxGeometry x="35" y="164" width="30" height="30" as="geometry" />
        </mxCell>
        <mxCell id="nyp7UTZMh-LQ20o-XJWW-8" value="&amp;lt;&amp;lt;create&amp;gt;&amp;gt;" style="html=1;verticalAlign=bottom;endArrow=block;curved=0;rounded=0;" parent="1" edge="1">
          <mxGeometry width="80" relative="1" as="geometry">
            <mxPoint x="280" y="135" as="sourcePoint" />
            <mxPoint x="360" y="135" as="targetPoint" />
          </mxGeometry>
        </mxCell>
        <mxCell id="nyp7UTZMh-LQ20o-XJWW-9" value="InserisceLuogo()" style="html=1;verticalAlign=bottom;endArrow=block;curved=0;rounded=0;" parent="1" edge="1">
          <mxGeometry width="80" relative="1" as="geometry">
            <mxPoint x="54" y="180" as="sourcePoint" />
            <mxPoint x="413.5" y="180" as="targetPoint" />
          </mxGeometry>
        </mxCell>
        <mxCell id="nyp7UTZMh-LQ20o-XJWW-11" value="InviaForm()" style="html=1;verticalAlign=bottom;endArrow=block;curved=0;rounded=0;" parent="1" edge="1">
          <mxGeometry width="80" relative="1" as="geometry">
            <mxPoint x="413.5" y="211" as="sourcePoint" />
            <mxPoint x="283" y="211" as="targetPoint" />
          </mxGeometry>
        </mxCell>
        <mxCell id="nyp7UTZMh-LQ20o-XJWW-12" value="&amp;lt;&amp;lt;destroy&amp;gt;&amp;gt;" style="html=1;verticalAlign=bottom;endArrow=block;curved=0;rounded=0;" parent="1" edge="1">
          <mxGeometry width="80" relative="1" as="geometry">
            <mxPoint x="280" y="290" as="sourcePoint" />
            <mxPoint x="406" y="290" as="targetPoint" />
          </mxGeometry>
        </mxCell>
        <mxCell id="nyp7UTZMh-LQ20o-XJWW-15" value="Riceve()" style="html=1;verticalAlign=bottom;endArrow=block;curved=0;rounded=0;" parent="1" edge="1">
          <mxGeometry width="80" relative="1" as="geometry">
            <mxPoint x="50" y="340" as="sourcePoint" />
            <mxPoint x="529.5" y="340" as="targetPoint" />
          </mxGeometry>
        </mxCell>
      </root>
    </mxGraphModel>
  </diagram>
</mxfile>
